<svg width="267" height="77" viewBox="0 0 267 77" fill="none" xmlns="http://www.w3.org/2000/svg">
<g clip-path="url(#clip0_13_226)">
<path d="M265.526 1.51404H78.5418V75.4859H265.526V1.51404Z" fill="#FF2400" stroke="#FF2400" stroke-width="7"/>
<path d="M107.227 30.9888L99.5173 53.6404H92.6259L84.9161 30.9888H91.3768L95.9566 47.1958H96.1866L100.752 30.9888H107.227ZM110.357 53.6404V30.9888H116.473V53.6404H110.357ZM113.429 28.0688C112.52 28.0688 111.74 27.7591 111.089 27.1397C110.447 26.5105 110.127 25.7584 110.127 24.8834C110.127 24.0182 110.447 23.276 111.089 22.6566C111.74 22.0274 112.52 21.7128 113.429 21.7128C114.338 21.7128 115.114 22.0274 115.755 22.6566C116.406 23.276 116.731 24.0182 116.731 24.8834C116.731 25.7584 116.406 26.5105 115.755 27.1397C115.114 27.7591 114.338 28.0688 113.429 28.0688ZM129.498 54.009C127.823 54.009 126.306 53.5669 124.947 52.6818C123.597 51.7872 122.525 50.4748 121.731 48.7444C120.946 47.0042 120.554 44.8707 120.554 42.3441C120.554 39.7486 120.96 37.5906 121.774 35.8701C122.588 34.1398 123.669 32.8469 125.019 31.9915C126.378 31.1264 127.866 30.6938 129.484 30.6938C130.718 30.6938 131.747 30.9101 132.571 31.3427C133.403 31.7654 134.073 32.2963 134.58 32.9354C135.097 33.5646 135.489 34.184 135.758 34.7935H135.944V23.4382H142.046V53.6404H136.016V50.0128H135.758C135.471 50.6418 135.064 51.266 134.537 51.8854C134.021 52.495 133.346 53.0015 132.513 53.4047C131.69 53.8074 130.685 54.009 129.498 54.009ZM131.436 49.0096C132.422 49.0096 133.255 48.7345 133.934 48.1838C134.624 47.6236 135.15 46.8419 135.513 45.8392C135.887 44.8365 136.074 43.6616 136.074 42.3146C136.074 40.9677 135.892 39.7977 135.528 38.8047C135.164 37.8118 134.638 37.0449 133.949 36.5042C133.26 35.9635 132.422 35.6931 131.436 35.6931C130.431 35.6931 129.584 35.9733 128.895 36.5337C128.206 37.0941 127.684 37.8708 127.33 38.8637C126.976 39.8567 126.799 41.007 126.799 42.3146C126.799 43.6322 126.976 44.7971 127.33 45.8098C127.694 46.8125 128.216 47.599 128.895 48.1691C129.584 48.7297 130.431 49.0096 131.436 49.0096ZM157.124 54.083C154.856 54.083 152.903 53.611 151.267 52.6671C149.64 51.7133 148.386 50.3666 147.505 48.6263C146.625 46.8765 146.184 44.8071 146.184 42.4178C146.184 40.0878 146.625 38.0428 147.505 36.283C148.386 34.5231 149.625 33.1517 151.224 32.1685C152.831 31.1854 154.717 30.6938 156.88 30.6938C158.335 30.6938 159.69 30.9347 160.943 31.4164C162.207 31.8883 163.307 32.6011 164.245 33.5548C165.193 34.5084 165.93 35.7079 166.456 37.1531C166.983 38.5884 167.246 40.2696 167.246 42.1966V43.922H148.625V40.0288H161.489C161.489 39.1243 161.298 38.323 160.915 37.625C160.532 36.9269 160 36.3813 159.321 35.9881C158.651 35.585 157.871 35.3834 156.981 35.3834C156.052 35.3834 155.229 35.6046 154.511 36.047C153.803 36.4796 153.248 37.0646 152.846 37.802C152.444 38.5295 152.238 39.3406 152.229 40.2353V43.9367C152.229 45.0575 152.43 46.0261 152.831 46.8419C153.243 47.6578 153.822 48.2872 154.569 48.7297C155.315 49.1718 156.201 49.3933 157.225 49.3933C157.904 49.3933 158.526 49.2951 159.091 49.0983C159.656 48.9015 160.139 48.6069 160.541 48.2137C160.943 47.82 161.249 47.3385 161.46 46.7684L167.117 47.1517C166.83 48.5476 166.241 49.7666 165.351 50.8092C164.47 51.8413 163.331 52.6477 161.934 53.2273C160.546 53.7979 158.943 54.083 157.124 54.083ZM181.201 54.083C178.971 54.083 177.042 53.5963 175.415 52.623C173.798 51.6397 172.549 50.2732 171.668 48.523C170.787 46.7632 170.347 44.7231 170.347 42.4031C170.347 40.0632 170.787 38.0183 171.668 36.2682C172.549 34.5084 173.798 33.1418 175.415 32.1685C177.042 31.1854 178.971 30.6938 181.201 30.6938C183.431 30.6938 185.355 31.1854 186.972 32.1685C188.599 33.1418 189.853 34.5084 190.734 36.2682C191.614 38.0183 192.055 40.0632 192.055 42.4031C192.055 44.7231 191.614 46.7632 190.734 48.523C189.853 50.2732 188.599 51.6397 186.972 52.623C185.355 53.5963 183.431 54.083 181.201 54.083ZM181.229 49.2164C182.244 49.2164 183.091 48.9214 183.771 48.3313C184.45 47.7318 184.962 46.9159 185.307 45.8833C185.661 44.8512 185.838 43.6763 185.838 42.3589C185.838 41.0414 185.661 39.8666 185.307 38.8342C184.962 37.802 184.45 36.9859 183.771 36.3862C183.091 35.7865 182.244 35.4866 181.229 35.4866C180.205 35.4866 179.344 35.7865 178.645 36.3862C177.956 36.9859 177.435 37.802 177.08 38.8342C176.736 39.8666 176.564 41.0414 176.564 42.3589C176.564 43.6763 176.736 44.8512 177.08 45.8833C177.435 46.9159 177.956 47.7318 178.645 48.3313C179.344 48.9214 180.205 49.2164 181.229 49.2164ZM207.89 30.9888V35.7079H194.28V30.9888H207.89ZM197.396 53.6404V29.3518C197.396 27.7099 197.706 26.3483 198.329 25.2668C198.961 24.1854 199.822 23.3743 200.913 22.8336C202.004 22.2928 203.243 22.0225 204.631 22.0225C205.569 22.0225 206.426 22.0962 207.201 22.2437C207.986 22.3911 208.57 22.5239 208.953 22.6418L207.862 27.3609C207.622 27.2823 207.326 27.2085 206.971 27.1397C206.627 27.0709 206.273 27.0365 205.909 27.0365C205.009 27.0365 204.382 27.2528 204.028 27.6854C203.674 28.1081 203.497 28.7029 203.497 29.4698V53.6404H197.396ZM217.743 23.4382V53.6404H211.627V23.4382H217.743ZM222.642 53.6404V30.9888H228.758V53.6404H222.642ZM225.714 28.0688C224.805 28.0688 224.025 27.7591 223.374 27.1397C222.733 26.5105 222.412 25.7584 222.412 24.8834C222.412 24.0182 222.733 23.276 223.374 22.6566C224.025 22.0274 224.805 21.7128 225.714 21.7128C226.624 21.7128 227.399 22.0274 228.04 22.6566C228.691 23.276 229.017 24.0182 229.017 24.8834C229.017 25.7584 228.691 26.5105 228.04 27.1397C227.399 27.7591 226.624 28.0688 225.714 28.0688ZM238.768 30.9888L242.817 38.908L246.966 30.9888H253.24L246.851 42.3146L253.413 53.6404H247.167L242.817 45.8098L238.539 53.6404H232.222L238.768 42.3146L232.451 30.9888H238.768Z" fill="white"/>
<path d="M75.5939 1.51404H1.474V75.4859H75.5939V1.51404Z" fill="white" stroke="#FF2400" stroke-width="7"/>
<path d="M32.997 19.7809L41.8803 48.4641H42.2214L51.1225 19.7809H59.7368L47.0666 57.5337H37.0528L24.3649 19.7809H32.997Z" fill="black"/>
</g>
<defs>
<clipPath id="clip0_13_226">
<rect width="267" height="77" fill="white"/>
</clipPath>
</defs>
</svg>
