<svg width="634" height="178" viewBox="0 0 634 178" fill="none" xmlns="http://www.w3.org/2000/svg">
<rect x="186.5" y="3.5" width="444" height="171" fill="#FF2400" stroke="#FF2400" stroke-width="7"/>
<path d="M254.614 71.6364L236.307 124H219.943L201.636 71.6364H216.977L227.852 109.102H228.398L239.239 71.6364H254.614ZM262.045 124V71.6364H276.568V124H262.045ZM269.341 64.8864C267.182 64.8864 265.33 64.1705 263.784 62.7386C262.261 61.2841 261.5 59.5455 261.5 57.5227C261.5 55.5227 262.261 53.8068 263.784 52.375C265.33 50.9205 267.182 50.1932 269.341 50.1932C271.5 50.1932 273.341 50.9205 274.864 52.375C276.409 53.8068 277.182 55.5227 277.182 57.5227C277.182 59.5455 276.409 61.2841 274.864 62.7386C273.341 64.1705 271.5 64.8864 269.341 64.8864ZM307.497 124.852C303.52 124.852 299.918 123.83 296.69 121.784C293.486 119.716 290.94 116.682 289.054 112.682C287.19 108.659 286.259 103.727 286.259 97.8864C286.259 91.8864 287.224 86.8977 289.156 82.9205C291.088 78.9205 293.656 75.9318 296.861 73.9545C300.088 71.9545 303.622 70.9545 307.463 70.9545C310.395 70.9545 312.838 71.4545 314.793 72.4545C316.77 73.4318 318.361 74.6591 319.565 76.1364C320.793 77.5909 321.724 79.0227 322.361 80.4318H322.804V54.1818H337.293V124H322.974V115.614H322.361C321.679 117.068 320.713 118.511 319.463 119.943C318.236 121.352 316.634 122.523 314.656 123.455C312.702 124.386 310.315 124.852 307.497 124.852ZM312.099 113.295C314.44 113.295 316.418 112.659 318.031 111.386C319.668 110.091 320.918 108.284 321.781 105.966C322.668 103.648 323.111 100.932 323.111 97.8182C323.111 94.7045 322.679 92 321.815 89.7045C320.952 87.4091 319.702 85.6364 318.065 84.3864C316.429 83.1364 314.44 82.5114 312.099 82.5114C309.713 82.5114 307.702 83.1591 306.065 84.4545C304.429 85.75 303.19 87.5455 302.349 89.8409C301.509 92.1364 301.088 94.7955 301.088 97.8182C301.088 100.864 301.509 103.557 302.349 105.898C303.213 108.216 304.452 110.034 306.065 111.352C307.702 112.648 309.713 113.295 312.099 113.295ZM373.097 125.023C367.71 125.023 363.074 123.932 359.188 121.75C355.324 119.545 352.347 116.432 350.256 112.409C348.165 108.364 347.119 103.58 347.119 98.0568C347.119 92.6705 348.165 87.9432 350.256 83.875C352.347 79.8068 355.29 76.6364 359.085 74.3636C362.903 72.0909 367.381 70.9545 372.517 70.9545C375.972 70.9545 379.188 71.5114 382.165 72.625C385.165 73.7159 387.778 75.3636 390.006 77.5682C392.256 79.7727 394.006 82.5455 395.256 85.8864C396.506 89.2045 397.131 93.0909 397.131 97.5455V101.534H352.915V92.5341H383.46C383.46 90.4432 383.006 88.5909 382.097 86.9773C381.188 85.3636 379.926 84.1023 378.312 83.1932C376.722 82.2614 374.869 81.7955 372.756 81.7955C370.551 81.7955 368.597 82.3068 366.892 83.3295C365.21 84.3295 363.892 85.6818 362.938 87.3864C361.983 89.0682 361.494 90.9432 361.472 93.0114V101.568C361.472 104.159 361.949 106.398 362.903 108.284C363.881 110.17 365.256 111.625 367.028 112.648C368.801 113.67 370.903 114.182 373.335 114.182C374.949 114.182 376.426 113.955 377.767 113.5C379.108 113.045 380.256 112.364 381.21 111.455C382.165 110.545 382.892 109.432 383.392 108.114L396.824 109C396.142 112.227 394.744 115.045 392.631 117.455C390.54 119.841 387.835 121.705 384.517 123.045C381.222 124.364 377.415 125.023 373.097 125.023ZM430.267 125.023C424.972 125.023 420.392 123.898 416.528 121.648C412.688 119.375 409.722 116.216 407.631 112.17C405.54 108.102 404.494 103.386 404.494 98.0227C404.494 92.6136 405.54 87.8864 407.631 83.8409C409.722 79.7727 412.688 76.6136 416.528 74.3636C420.392 72.0909 424.972 70.9545 430.267 70.9545C435.562 70.9545 440.131 72.0909 443.972 74.3636C447.835 76.6136 450.812 79.7727 452.903 83.8409C454.994 87.8864 456.04 92.6136 456.04 98.0227C456.04 103.386 454.994 108.102 452.903 112.17C450.812 116.216 447.835 119.375 443.972 121.648C440.131 123.898 435.562 125.023 430.267 125.023ZM430.335 113.773C432.744 113.773 434.756 113.091 436.369 111.727C437.983 110.341 439.199 108.455 440.017 106.068C440.858 103.682 441.278 100.966 441.278 97.9205C441.278 94.875 440.858 92.1591 440.017 89.7727C439.199 87.3864 437.983 85.5 436.369 84.1136C434.756 82.7273 432.744 82.0341 430.335 82.0341C427.903 82.0341 425.858 82.7273 424.199 84.1136C422.563 85.5 421.324 87.3864 420.483 89.7727C419.665 92.1591 419.256 94.875 419.256 97.9205C419.256 100.966 419.665 103.682 420.483 106.068C421.324 108.455 422.563 110.341 424.199 111.727C425.858 113.091 427.903 113.773 430.335 113.773ZM493.642 71.6364V82.5455H461.324V71.6364H493.642ZM468.722 124V67.8523C468.722 64.0568 469.46 60.9091 470.938 58.4091C472.438 55.9091 474.483 54.0341 477.074 52.7841C479.665 51.5341 482.608 50.9091 485.903 50.9091C488.131 50.9091 490.165 51.0795 492.006 51.4205C493.869 51.7614 495.256 52.0682 496.165 52.3409L493.574 63.25C493.006 63.0682 492.301 62.8977 491.46 62.7386C490.642 62.5795 489.801 62.5 488.938 62.5C486.801 62.5 485.312 63 484.472 64C483.631 64.9773 483.21 66.3523 483.21 68.125V124H468.722ZM517.037 54.1818V124H502.514V54.1818H517.037ZM528.67 124V71.6364H543.193V124H528.67ZM535.966 64.8864C533.807 64.8864 531.955 64.1705 530.409 62.7386C528.886 61.2841 528.125 59.5455 528.125 57.5227C528.125 55.5227 528.886 53.8068 530.409 52.375C531.955 50.9205 533.807 50.1932 535.966 50.1932C538.125 50.1932 539.966 50.9205 541.489 52.375C543.034 53.8068 543.807 55.5227 543.807 57.5227C543.807 59.5455 543.034 61.2841 541.489 62.7386C539.966 64.1705 538.125 64.8864 535.966 64.8864ZM566.963 71.6364L576.577 89.9432L586.429 71.6364H601.327L586.156 97.8182L601.736 124H586.906L576.577 105.898L566.418 124H551.418L566.963 97.8182L551.963 71.6364H566.963Z" fill="white"/>
<rect x="3.5" y="3.5" width="176" height="171" fill="white" stroke="#FF2400" stroke-width="7"/>
<path d="M78.3523 45.7273L99.446 112.034H100.256L121.392 45.7273H141.847L111.761 133H87.983L57.8551 45.7273H78.3523Z" fill="black"/>
</svg>
